<?xml version="1.0" encoding="utf-8"?>
<!-- Generator: Adobe Illustrator 27.5.0, SVG Export Plug-In . SVG Version: 6.00 Build 0)  -->
<svg version="1.1" xmlns="http://www.w3.org/2000/svg" xmlns:xlink="http://www.w3.org/1999/xlink" x="0px" y="0px"
	 viewBox="0 0 500 500" style="enable-background:new 0 0 500 500;" xml:space="preserve">
<g id="Background_Simple">
	<g>
		<path style="fill:#92E3A9;" d="M156.866,466.822c0,0-89.36-33.924-130.73-139.004s107.563-178.72,105.908-194.44
			S26.136,109.383,88.191,58.911c62.055-50.472,279.663-56.264,359.094,52.127s-3.31,143.969-11.584,162.999
			c-8.274,19.03,73.639,26.477,16.548,124.111S222.231,493.299,156.866,466.822z"/>
		<path style="opacity:0.7;fill:#FFFFFF;" d="M156.866,466.822c0,0-89.36-33.924-130.73-139.004s107.563-178.72,105.908-194.44
			S26.136,109.383,88.191,58.911c62.055-50.472,279.663-56.264,359.094,52.127s-3.31,143.969-11.584,162.999
			c-8.274,19.03,73.639,26.477,16.548,124.111S222.231,493.299,156.866,466.822z"/>
	</g>
</g>
<g id="Clouds">
	<path style="opacity:0.3;fill:none;stroke:#000000;stroke-miterlimit:10;" d="M449.907,65.704c0,0-13.906-30.594-37.547-40.329
		c-23.641-9.734-50.758,27.117-53.54,33.375s-15.297-18.078-27.813-11.125s-16.688,15.992-17.383,18.078
		c-0.695,2.086-14.602-9.735-19.469-6.953c-4.867,2.781-9.039,8.344-9.039,8.344l-18.774,8.344h204.424
		C470.766,75.439,461.727,57.361,449.907,65.704z"/>
	<path style="opacity:0.3;fill:none;stroke:#000000;stroke-miterlimit:10;" d="M132.393,141.729c0,0-8.605-18.931-23.233-24.954
		c-14.628-6.023-31.408,16.78-33.129,20.652c-1.721,3.872-9.465-11.186-17.21-6.884c-7.744,4.302-10.326,9.896-10.756,11.186
		c-0.43,1.291-9.035-6.023-12.047-4.302c-3.012,1.721-5.593,5.163-5.593,5.163l-11.617,5.163H145.3
		C145.3,147.752,139.707,136.566,132.393,141.729z"/>
</g>
<g id="Rocks">
	<g>
		<ellipse style="fill:none;stroke:#263238;stroke-miterlimit:10;" cx="160.028" cy="447.916" rx="17.374" ry="5.665"/>
		<ellipse style="fill:none;stroke:#263238;stroke-miterlimit:10;" cx="309.424" cy="463.984" rx="31.473" ry="10.28"/>
		<path style="fill:none;stroke:#263238;stroke-miterlimit:10;" d="M62.419,436.542c0,2.832-5.428,5.127-12.124,5.127
			s-12.124-2.295-12.124-5.127c0-2.832,5.428-5.127,12.124-5.127S62.419,433.711,62.419,436.542z"/>
		<path style="fill:none;stroke:#263238;stroke-miterlimit:10;" d="M112.438,436.995c0,1.877-2.875,3.399-6.421,3.399
			c-3.546,0-6.421-1.522-6.421-3.399c0-1.877,2.875-3.399,6.421-3.399C109.564,433.596,112.438,435.118,112.438,436.995z"/>
		<ellipse style="fill:none;stroke:#263238;stroke-miterlimit:10;" cx="209.127" cy="435.075" rx="6.798" ry="4.91"/>
		<ellipse style="fill:none;stroke:#263238;stroke-miterlimit:10;" cx="462.577" cy="407.802" rx="6.798" ry="2.455"/>
		<path style="fill:none;stroke:#263238;stroke-miterlimit:10;" d="M377.516,442.894c0,1.356-1.522,2.455-3.399,2.455
			c-1.877,0-3.399-1.099-3.399-2.455c0-1.356,1.522-2.455,3.399-2.455C375.994,440.439,377.516,441.538,377.516,442.894z"/>
		<path style="fill:none;stroke:#263238;stroke-miterlimit:10;" d="M277.39,428.661c0,1.356-1.522,2.455-3.399,2.455
			c-1.877,0-3.399-1.099-3.399-2.455c0-1.356,1.522-2.455,3.399-2.455C275.868,426.206,277.39,427.306,277.39,428.661z"/>
		<path style="fill:none;stroke:#263238;stroke-miterlimit:10;" d="M198.184,407.106c0,1.252-1.86,2.266-4.155,2.266
			c-2.295,0-4.155-1.015-4.155-2.266c0-1.251,1.86-2.266,4.155-2.266C196.323,404.84,198.184,405.855,198.184,407.106z"/>
		<path style="fill:none;stroke:#263238;stroke-miterlimit:10;" d="M431.965,460.38c0,3.755-6.426,6.798-14.352,6.798
			c-7.927,0-14.352-3.044-14.352-6.798s6.426-6.798,14.352-6.798C425.54,453.582,431.965,456.625,431.965,460.38z"/>
	</g>
</g>
<g id="Plants_3">
	<g style="opacity:0.3;">
		<g>
			<path style="fill:none;stroke:#000000;stroke-miterlimit:10;" d="M289.125,314.963c-2.243,4.449-5.613,9.222-9.6,13.641
				c-0.246,0.27-0.492,0.546-0.75,0.822c-2.183,2.374-4.581,4.803-7.129,7.255c-1.919,1.847-3.916,3.706-5.966,5.559
				c-1.037,0.935-2.087,1.871-3.142,2.806c-15.614,13.785-33.165,27.043-39.635,33.837c-9.054,9.51-9.51,12.226-9.51,12.226
				s42.124-20.381,40.313-11.321c-0.15,0.737-0.318,1.457-0.504,2.165c-0.438,1.697-0.971,3.31-1.547,4.797
				c-2.129,5.54-4.743,9.342-4.743,9.342s4.155-1.481,8.886-2.938c2.554-0.792,5.283-1.571,7.603-2.111
				c0.654-0.15,1.283-0.288,1.859-0.39c3.202-0.6,5.049-0.444,3.394,1.361c-4.983,5.439-4.983,5.439-4.983,5.439
				s9.51,1.355,14.037,1.355c0.18,0,0.36,0.012,0.552,0.018H141.792l7.285-3.64c0,0-16.76-20.837-8.611-20.381
				c8.029,0.444,19.128,17.131,19.476,17.653c-0.162-1.517-13.006-117.4,5.894-131.797c6.878-5.241,0.906,84.247,0.906,84.247
				s36.685-145.391,46.651-130.448c7.591,11.387-12.67,85.296-22.762,119.889c10.05-31.312,33.369-93.547,61.713-99.957
				c38.052-8.605-38.496,89.686-45.745,110.517c-7.249,20.837-7.249,33.069-7.249,33.069s16.76-52.995,59.788-72.926
				c15.159-7.022,24.249-8.479,28.926-6.608c2.578,1.031,3.82,3.07,4.005,5.744C292.273,307.162,291.164,310.928,289.125,314.963z"
				/>
			<path style="fill:none;stroke:#000000;stroke-miterlimit:10;" d="M160.145,332.988c-0.51-16.76,0.203-35.135,3.423-52.849"/>
			<path style="fill:none;stroke:#000000;stroke-miterlimit:10;" d="M166.392,389.968c-1.826-9.578-5.108-29.463-6.102-53.014"/>
			<path style="fill:none;stroke:#000000;stroke-miterlimit:10;" d="M180.397,337.884c-2.385,13.306-4.352,26.933-5.505,40.092"/>
			<path style="fill:none;stroke:#000000;stroke-miterlimit:10;" d="M203.881,243.451c0,0-13.662,42.037-22.577,89.493"/>
			<path style="fill:none;stroke:#000000;stroke-miterlimit:10;" d="M191.135,362.384c-2.521,8.697-4.405,17.306-5.372,25.556"/>
			<path style="fill:none;stroke:#000000;stroke-miterlimit:10;" d="M234.825,269.59c-12.064,19.585-32.226,55.18-42.813,89.848"/>
			<path style="fill:none;stroke:#000000;stroke-miterlimit:10;" d="M244.646,254.322c0,0-2.72,3.95-6.998,10.737"/>
			<path style="fill:none;stroke:#000000;stroke-miterlimit:10;" d="M276.803,312.301c-1.607,0.935-3.184,1.895-4.731,2.878"/>
			<path style="fill:none;stroke:#000000;stroke-miterlimit:10;" d="M267.682,318.033c-1.319,0.887-2.614,1.787-3.892,2.698"/>
			<path style="fill:none;stroke:#000000;stroke-miterlimit:10;" d="M219.154,365.616c9.467-13.05,23.105-28.759,41.244-42.395"/>
			<path style="fill:none;stroke:#000000;stroke-miterlimit:10;" d="M202.522,392.923c0,0,4.812-10.567,14.909-24.898"/>
		</g>
		<g>
			<path style="fill:none;stroke:#000000;stroke-miterlimit:10;" d="M473.824,328.507c-1.88,3.731-4.706,7.733-8.05,11.438
				c-0.206,0.226-0.412,0.458-0.629,0.689c-1.83,1.991-3.841,4.027-5.978,6.084c-1.609,1.549-3.283,3.107-5.003,4.661
				c-0.87,0.784-1.75,1.569-2.635,2.353c-13.092,11.559-27.809,22.676-33.234,28.372c-7.592,7.974-7.974,10.252-7.974,10.252
				s35.321-17.09,33.802-9.493c-0.126,0.618-0.266,1.222-0.422,1.815c-0.367,1.423-0.815,2.775-1.297,4.022
				c-1.785,4.646-3.977,7.833-3.977,7.833s3.484-1.242,7.451-2.464c2.142-0.664,4.43-1.317,6.375-1.77
				c0.548-0.126,1.076-0.241,1.559-0.327c2.685-0.503,4.233-0.372,2.846,1.141c-4.178,4.56-4.178,4.56-4.178,4.56
				s7.974,1.136,11.77,1.136c0.151,0,0.302,0.01,0.463,0.015H350.284l6.109-3.052c0,0-14.053-17.472-7.22-17.09
				c6.732,0.372,16.039,14.365,16.331,14.802c-0.136-1.272-10.906-98.44,4.942-110.512c5.767-4.394,0.759,70.641,0.759,70.641
				s30.76-121.91,39.117-109.381c6.365,9.548-10.624,71.521-19.086,100.527c8.427-26.255,27.98-78.44,51.747-83.814
				c31.907-7.215-32.279,75.202-38.358,92.668c-6.079,17.472-6.079,27.729-6.079,27.729s14.053-44.436,50.133-61.149
				c12.711-5.888,20.333-7.109,24.254-5.541c2.162,0.865,3.203,2.574,3.359,4.817C476.463,321.966,475.533,325.123,473.824,328.507z
				"/>
			<path style="fill:none;stroke:#000000;stroke-miterlimit:10;" d="M365.674,343.621c-0.428-14.053,0.17-29.461,2.871-44.314"/>
			<path style="fill:none;stroke:#000000;stroke-miterlimit:10;" d="M370.912,391.398c-1.531-8.031-4.283-24.705-5.117-44.453"/>
			<path style="fill:none;stroke:#000000;stroke-miterlimit:10;" d="M382.655,347.726c-2,11.157-3.649,22.583-4.616,33.617"/>
			<path style="fill:none;stroke:#000000;stroke-miterlimit:10;" d="M402.346,268.544c0,0-11.456,35.248-18.931,75.04"/>
			<path style="fill:none;stroke:#000000;stroke-miterlimit:10;" d="M391.659,368.27c-2.114,7.293-3.694,14.511-4.504,21.429"/>
			<path style="fill:none;stroke:#000000;stroke-miterlimit:10;" d="M428.293,290.461c-10.116,16.422-27.022,46.268-35.898,75.338"
				/>
			<path style="fill:none;stroke:#000000;stroke-miterlimit:10;" d="M436.528,277.659c0,0-2.281,3.312-5.868,9.003"/>
			<path style="fill:none;stroke:#000000;stroke-miterlimit:10;" d="M463.491,326.275c-1.347,0.784-2.67,1.589-3.967,2.413"/>
			<path style="fill:none;stroke:#000000;stroke-miterlimit:10;" d="M455.844,331.081c-1.106,0.744-2.192,1.498-3.263,2.263"/>
			<path style="fill:none;stroke:#000000;stroke-miterlimit:10;" d="M415.153,370.979c7.938-10.942,19.374-24.115,34.584-35.548"/>
			<path style="fill:none;stroke:#000000;stroke-miterlimit:10;" d="M401.207,393.876c0,0,4.035-8.861,12.501-20.877"/>
		</g>
		<g>
			<path style="fill:none;stroke:#000000;stroke-miterlimit:10;" d="M9.546,328.507c1.88,3.731,4.706,7.733,8.05,11.438
				c0.206,0.226,0.412,0.458,0.628,0.689c1.83,1.991,3.841,4.027,5.978,6.084c1.609,1.549,3.283,3.107,5.003,4.661
				c0.87,0.784,1.75,1.569,2.635,2.353c13.093,11.559,27.809,22.676,33.234,28.372c7.592,7.974,7.974,10.252,7.974,10.252
				s-35.321-17.09-33.802-9.493c0.126,0.618,0.266,1.222,0.422,1.815c0.367,1.423,0.814,2.775,1.297,4.022
				c1.785,4.646,3.977,7.833,3.977,7.833s-3.484-1.242-7.451-2.464c-2.142-0.664-4.43-1.317-6.375-1.77
				c-0.548-0.126-1.076-0.241-1.559-0.327c-2.685-0.503-4.233-0.372-2.846,1.141c4.178,4.56,4.178,4.56,4.178,4.56
				s-7.974,1.136-11.77,1.136c-0.151,0-0.302,0.01-0.463,0.015h114.429l-6.109-3.052c0,0,14.053-17.472,7.22-17.09
				c-6.732,0.372-16.039,14.365-16.331,14.802c0.136-1.272,10.905-98.44-4.942-110.512c-5.767-4.394-0.759,70.641-0.759,70.641
				s-30.76-121.91-39.117-109.381c-6.365,9.548,10.624,71.521,19.086,100.527c-8.427-26.255-27.98-78.44-51.747-83.814
				c-31.907-7.215,32.279,75.202,38.358,92.668c6.079,17.472,6.079,27.729,6.079,27.729S70.77,336.909,34.69,320.196
				c-12.71-5.888-20.333-7.109-24.254-5.541c-2.162,0.865-3.203,2.574-3.359,4.817C6.906,321.966,7.836,325.123,9.546,328.507z"/>
			<path style="fill:none;stroke:#000000;stroke-miterlimit:10;" d="M117.695,343.621c0.428-14.053-0.17-29.461-2.871-44.314"/>
			<path style="fill:none;stroke:#000000;stroke-miterlimit:10;" d="M112.458,391.398c1.531-8.031,4.283-24.705,5.117-44.453"/>
			<path style="fill:none;stroke:#000000;stroke-miterlimit:10;" d="M100.714,347.726c2,11.157,3.649,22.583,4.616,33.617"/>
			<path style="fill:none;stroke:#000000;stroke-miterlimit:10;" d="M81.023,268.544c0,0,11.456,35.248,18.931,75.04"/>
			<path style="fill:none;stroke:#000000;stroke-miterlimit:10;" d="M91.711,368.27c2.114,7.293,3.694,14.511,4.504,21.429"/>
			<path style="fill:none;stroke:#000000;stroke-miterlimit:10;" d="M55.077,290.461c10.115,16.422,27.022,46.268,35.899,75.338"/>
			<path style="fill:none;stroke:#000000;stroke-miterlimit:10;" d="M46.841,277.659c0,0,2.281,3.312,5.868,9.003"/>
			<path style="fill:none;stroke:#000000;stroke-miterlimit:10;" d="M19.878,326.275c1.347,0.784,2.67,1.589,3.967,2.413"/>
			<path style="fill:none;stroke:#000000;stroke-miterlimit:10;" d="M27.525,331.081c1.106,0.744,2.192,1.498,3.263,2.263"/>
			<path style="fill:none;stroke:#000000;stroke-miterlimit:10;" d="M68.216,370.979c-7.938-10.942-19.374-24.115-34.584-35.548"/>
			<path style="fill:none;stroke:#000000;stroke-miterlimit:10;" d="M82.162,393.876c0,0-4.035-8.861-12.501-20.877"/>
		</g>
		<g>
			<path style="fill:none;stroke:#000000;stroke-miterlimit:10;" d="M263.401,391.043c-2.321,0.54-5.049,1.319-7.603,2.111
				c-1.343-1.829-3.01-4.257-4.143-6.404c0.576-1.487,1.109-3.1,1.547-4.797C256.793,383.086,260.925,387.823,263.401,391.043z"/>
			<path style="fill:none;stroke:#000000;stroke-miterlimit:10;" d="M348.38,398.581c0.618,0,1.343,0.096,2.111,0.246H278.26
				c-0.192-0.006-0.372-0.018-0.552-0.018c-4.527,0-14.037-1.355-14.037-1.355s0,0,4.983-5.439c1.655-1.805-0.192-1.961-3.394-1.361
				c-0.768-7.663-2.5-26.875-2.722-45.607c1.055-0.935,2.105-1.871,3.142-2.806c2.051-1.853,4.048-3.712,5.966-5.559
				c-0.498,12.73-1.253,24.021-1.253,24.021s3.556-14.097,8.383-31.276c0.258-0.276,0.504-0.552,0.75-0.822
				c3.987-4.419,7.357-9.192,9.6-13.641c2.039-4.035,3.148-7.801,2.944-10.775c-0.186-2.674-1.427-4.713-4.005-5.744
				c6.146-18.918,12.226-33.747,15.117-29.418c5.337,8.005-8.91,59.974-16.004,84.271c7.058-21.994,23.451-65.755,43.377-70.264
				c26.737-6.05-27.055,63.027-32.146,77.669c-5.097,14.637-5.097,23.235-5.097,23.235s11.783-37.243,42.016-51.25
				c30.239-14.007,26.102,3.502,14.325,16.55c-11.777,13.054-33.423,28.65-39.785,35.336c-6.368,6.686-6.686,8.593-6.686,8.593
				s29.603-14.325,28.326-7.957c-1.235,6.2-4.593,11.189-4.767,11.453c0.45-0.156,18.732-6.632,15.272-2.86
				c-3.502,3.82-3.502,3.82-3.502,3.82S345.196,398.581,348.38,398.581z"/>
			<path style="fill:none;stroke:#000000;stroke-miterlimit:10;" d="M265.764,352.32c-0.102-3.286-0.132-6.656-0.084-10.08"/>
			<path style="fill:none;stroke:#000000;stroke-miterlimit:10;" d="M270.151,392.363c-1.283-6.731-3.589-20.705-4.289-37.255"/>
			<path style="fill:none;stroke:#000000;stroke-miterlimit:10;" d="M279.993,355.762c-1.676,9.35-3.058,18.927-3.868,28.174"/>
			<path style="fill:none;stroke:#000000;stroke-miterlimit:10;" d="M289.125,314.963c-2.794,10.619-5.924,23.655-8.497,37.327"/>
			<path style="fill:none;stroke:#000000;stroke-miterlimit:10;" d="M296.494,289.401c0,0-1.835,5.642-4.425,14.787"/>
			<path style="fill:none;stroke:#000000;stroke-miterlimit:10;" d="M287.539,372.979c-1.771,6.112-3.096,12.161-3.775,17.959"/>
			<path style="fill:none;stroke:#000000;stroke-miterlimit:10;" d="M318.241,307.768c-8.478,13.764-22.647,38.777-30.086,63.14"/>
			<path style="fill:none;stroke:#000000;stroke-miterlimit:10;" d="M325.143,297.039c0,0-1.911,2.776-4.918,7.545"/>
			<path style="fill:none;stroke:#000000;stroke-miterlimit:10;" d="M338.599,343.708c2.893-2.068,5.94-4.055,9.144-5.926"/>
			<path style="fill:none;stroke:#000000;stroke-miterlimit:10;" d="M307.229,375.25c6.653-9.171,16.237-20.21,28.984-29.792"/>
			<path style="fill:none;stroke:#000000;stroke-miterlimit:10;" d="M295.541,394.44c0,0,3.382-7.426,10.477-17.497"/>
		</g>
	</g>
</g>
<g id="Plant_2">
	<g>
		<path style="fill:#92E3A9;stroke:#263238;stroke-linecap:round;stroke-linejoin:round;stroke-miterlimit:10;" d="M109.413,409.236
			c0,0-2.179-8.28-6.101-14.381c-3.922-6.101-10.895-3.486-14.817,0.872c-3.922,4.358-4.794,7.844-4.794,7.844
			s-0.872-20.482,10.023-25.712c10.895-5.23,20.918,16.124,20.918,16.124s-1.743-18.739-11.33-35.735
			c-9.588-16.996-21.354-19.611-32.249-13.945s-13.074,12.202-13.074,12.202s7.408-26.147,27.455-27.019
			c20.046-0.872,30.07,24.84,30.07,24.84s-4.358-12.202-18.303-45.758c-13.945-33.556-27.455-40.529-31.377-63.19
			c-3.922-22.661-5.665-30.941-5.665-30.941s17.867,40.529,28.762,55.781c10.895,15.253,26.583,38.785,30.07,54.91
			c3.486,16.124,7.844,52.295,7.844,52.295s-5.758-39.143,4.358-64.933c12.313-31.392,31.462-36.916,45.322-31.813
			c9.053,3.333,14.817,13.945,14.817,13.945s-15.253-11.766-27.891-3.922c-12.638,7.844-28.326,64.497-28.762,71.906
			c-0.436,7.409-0.436,7.409-0.436,7.409s9.152-30.941,26.147-46.194c16.996-15.253,31.377-3.051,37.914,9.152
			c0,0-7.844-12.638-21.354-5.665c-13.51,6.973-29.198,45.322-32.249,55.346l-2.615,7.408c0,0,13.074-11.331,20.918-10.459
			c7.844,0.872,14.381,19.611,14.381,19.611s-8.716-12.638-15.689-9.587c-6.973,3.051-12.638,17.867-12.638,17.867l8.28,7.409
			l-20.046-4.358l2.615,8.716l-11.331-4.794l-13.51,7.844l4.794-10.023l-22.225,4.358L109.413,409.236z"/>
		<path style="fill:none;stroke:#263238;stroke-linecap:round;stroke-linejoin:round;stroke-miterlimit:10;" d="M123.906,397.186
			c-1.897-10.837-5.998-29.814-13.128-42.736"/>
		<path style="fill:none;stroke:#263238;stroke-linecap:round;stroke-linejoin:round;stroke-miterlimit:10;" d="M125.204,405.598
			c0,0-0.203-1.656-0.639-4.439"/>
		<path style="fill:none;stroke:#263238;stroke-linecap:round;stroke-linejoin:round;stroke-miterlimit:10;" d="M94.096,286.188
			c-5.255-9.322-10.352-17.805-14.466-25.182"/>
		<path style="fill:none;stroke:#263238;stroke-linecap:round;stroke-linejoin:round;stroke-miterlimit:10;" d="M124.549,387.565
			c0,0-0.984-35.41-10.82-60.985c-4.723-12.28-10.58-23.956-16.446-34.663"/>
		<path style="fill:none;stroke:#263238;stroke-linecap:round;stroke-linejoin:round;stroke-miterlimit:10;" d="M137.457,319.592
			c4.255-14.711,10.207-27.411,14.961-31.373c7.869-6.557,22.295-5.902,26.23-3.279"/>
		<path style="fill:none;stroke:#263238;stroke-linecap:round;stroke-linejoin:round;stroke-miterlimit:10;" d="M128.811,403.631
			c0,0,1.967-30.492,3.279-54.427c0.424-7.746,1.879-16.18,3.92-24.266"/>
		<path style="fill:none;stroke:#263238;stroke-linecap:round;stroke-linejoin:round;stroke-miterlimit:10;" d="M162.458,329.118
			c5.459-5.964,11.746-9.095,20.452-9.095"/>
		<path style="fill:none;stroke:#263238;stroke-linecap:round;stroke-linejoin:round;stroke-miterlimit:10;" d="M134.486,390.071
			c1.662-7.878,4.659-18.181,10.063-29.72c5.477-11.695,10.019-21.05,15.073-27.794"/>
		<path style="fill:none;stroke:#263238;stroke-linecap:round;stroke-linejoin:round;stroke-miterlimit:10;" d="M132.418,405.926
			c0,0,0-4.138,1.17-11.116"/>
		<path style="fill:none;stroke:#263238;stroke-linecap:round;stroke-linejoin:round;stroke-miterlimit:10;" d="M148.234,392.959
			c2.804-3.187,6.094-6.206,9.43-7.689c8.853-3.935,11.148,0.656,11.148,0.656"/>
		<path style="fill:none;stroke:#263238;stroke-linecap:round;stroke-linejoin:round;stroke-miterlimit:10;" d="M140.287,403.959
			c0,0,1.784-3.088,4.568-6.815"/>
		<path style="fill:none;stroke:#263238;stroke-linecap:round;stroke-linejoin:round;stroke-miterlimit:10;" d="M109.343,393.221
			c-3.238-4.344-7.254-8.935-10.369-9.918c-6.23-1.967-9.508,6.557-10.82,8.853"/>
		<path style="fill:none;stroke:#263238;stroke-linecap:round;stroke-linejoin:round;stroke-miterlimit:10;" d="M115.04,401.664
			c0,0-1.537-2.561-3.78-5.781"/>
		<path style="fill:none;stroke:#263238;stroke-linecap:round;stroke-linejoin:round;stroke-miterlimit:10;" d="M74.712,337.728
			c0,0,4.59-2.951,15.41-1.639c10.82,1.312,16.722,11.476,16.722,11.476"/>
	</g>
</g>
<g id="Plants_1">
	<path style="fill:#92E3A9;stroke:#263238;stroke-linecap:round;stroke-linejoin:round;stroke-miterlimit:10;" d="M415.65,428.802
		l-7.042-5.477l13.301,4.303l3.912-11.736l2.739,11.345c0,0,3.912-11.345,7.042-16.431c3.13-5.086,10.954-13.301,10.954-13.301
		l-6.651,17.605l10.954-5.477l-6.259,12.519l11.912-4.186l6.866-3.247l-9.78,8.998l11.736-0.391l-3.521,3.521l6.259,1.174
		l-26.994,1.565l15.257,5.477h-50.858l13.693-3.13h-15.58L415.65,428.802z"/>
	<path style="fill:#92E3A9;stroke:#263238;stroke-linecap:round;stroke-linejoin:round;stroke-miterlimit:10;" d="M30.611,411.779
		l-7.042-5.477l13.301,4.303l3.912-11.736l2.739,11.345c0,0,3.912-11.345,7.042-16.431c3.13-5.086,10.954-13.301,10.954-13.301
		l-6.651,17.605l10.954-5.477l-6.259,12.519l11.912-4.186l6.866-3.247l-9.78,8.998l11.736-0.391l-3.521,3.521l6.259,1.174
		l-26.994,1.565l15.257,5.477H20.439l13.692-3.13h-15.58L30.611,411.779z"/>
	<path style="fill:#92E3A9;stroke:#263238;stroke-linecap:round;stroke-linejoin:round;stroke-miterlimit:10;" d="M186.065,431.349
		l-4.65-0.872l2.616-2.616l-8.719,0.291l7.266-6.685l-5.101,2.412l-8.85,3.11l4.65-9.3l-8.138,4.069l4.941-13.078
		c0,0-5.813,6.103-8.138,9.881c-2.325,3.778-5.231,12.207-5.231,12.207l-2.034-8.428l-2.906,8.719l-4.036-1.306l3.031-2.788
		l-3.245,1.535l-1.754,0.616l-2.751-0.89l1.833-3.665l-5.178,2.589l3.144-8.321c0,0-3.698,3.883-5.178,6.287
		c-1.479,2.404-3.329,7.767-3.329,7.767l-1.294-5.363l-1.849,5.548l-6.287-2.034l3.328,2.589l-5.7,1.479h7.364l-6.472,1.479h16.167
		h7.873h29.909l-11.335-4.069L186.065,431.349z M142.831,428.594l1.375,1.07l-2.317,0.814L142.831,428.594z"/>
</g>
<g id="Shadow">
	<ellipse style="opacity:0.3;" cx="303.755" cy="417.965" rx="144.413" ry="18.254"/>
</g>
<g id="Character">
	<path style="fill:none;stroke:#263238;stroke-linecap:round;stroke-linejoin:round;stroke-miterlimit:10;" d="M407.34,249.602
		c0,0,14.939-3.178,17.482-7.946"/>
	<g>
		<path style="fill:#263238;stroke:#263238;stroke-linecap:round;stroke-linejoin:round;stroke-miterlimit:10;" d="M261.926,271.398
			c0,0-25.509-6.053-40.858,3.243c-15.349,9.296-12.322,28.536-9.512,41.074c2.81,12.538,47.992,34.156,50.802,36.318
			c2.81,2.162,9.512,8.431,12.755,9.728c3.243,1.297,7.35,1.297,7.35,1.297s14.052,14.916,14.7,17.294
			c0.649,2.378-2.378,6.269-4.756,8.431s-17.078,11.241-18.591,13.619c-1.513,2.378-0.216,6.053,1.297,6.702
			c1.513,0.648,17.51,3.459,24.428,2.81c6.918-0.648,20.105-9.079,23.564-10.809c3.459-1.73,12.322-2.594,13.403-4.324
			s-59.017-121.276-59.017-121.276L261.926,271.398z"/>
		<path style="fill:#92E3A9;stroke:#263238;stroke-linecap:round;stroke-linejoin:round;stroke-miterlimit:10;" d="M249.589,258.2
			c0,0-7.847,6.195-11.014,11.289c-3.166,5.094,1.927,23.955,3.855,27.259c1.927,3.304,6.883,6.471,13.354,4.818
			c6.471-1.652,21.201-13.629,22.303-16.107c1.101-2.478-1.514-7.021-11.564-16.245C256.472,259.99,253.168,255.034,249.589,258.2z"
			/>
		<path style="fill:#92E3A9;stroke:#263238;stroke-linecap:round;stroke-linejoin:round;stroke-miterlimit:10;" d="M238.162,273.895
			c0,0-3.167-2.478,2.203-2.478s12.39,13.492,13.629,21.064c1.239,7.572-1.79,8.26-3.304,8.398
			c-1.514,0.138-5.369-0.964-6.195-2.478C243.669,296.886,237.749,283.119,238.162,273.895z"/>
		<path style="fill:#92E3A9;stroke:#263238;stroke-linecap:round;stroke-linejoin:round;stroke-miterlimit:10;" d="M237.292,213.368
			c0,0,5.33,30.485,11.116,41.448c9.903,18.763,29.568,31.339,31.793,34.199c2.225,2.861,97.261,50.855,97.261,50.855l16.528,8.9
			c0,0,22.885-27.017,23.839-49.902c0.954-22.885-5.403-43.227-5.403-43.227s7.946-3.496,9.535-6.039
			c1.589-2.543,2.861-7.946,2.861-7.946s8.582-9.217,7.628-15.574c-0.954-6.357-13.667-28.606-24.156-32.42
			c-10.489-3.814-27.017-0.318-31.467-0.318c-4.45,0-10.807-0.636-10.807-0.636s-2.861-9.217-6.357-11.443
			c-3.496-2.225-16.21-4.768-16.21-4.768l-18.117-3.178c0,0-17.164,15.574-36.552,29.56c-19.389,13.985-47.359,2.543-47.359,2.543
			L237.292,213.368z"/>
		<g>
			<polygon style="fill:none;stroke:#263238;stroke-linecap:round;stroke-linejoin:round;stroke-miterlimit:10;" points="
				243.331,219.725 241.742,244.199 244.602,243.881 245.874,219.725 			"/>
			<polygon style="fill:none;stroke:#263238;stroke-linecap:round;stroke-linejoin:round;stroke-miterlimit:10;" points="
				254.138,226.082 256.999,256.277 260.177,255.959 256.999,225.128 			"/>
			<g>
				<path style="fill:#92E3A9;stroke:#263238;stroke-linecap:round;stroke-linejoin:round;stroke-miterlimit:10;" d="
					M241.424,209.554c0,0,1.589,16.21,4.132,18.753c2.543,2.543,32.42-5.086,44.181-13.35c11.76-8.264,34.327-27.653,40.684-31.785
					c6.357-4.132,13.032-6.675,13.032-6.675s-1.948-12.288-7.328-18.117c-10.704-11.596-28.693-9.863-28.693-9.863
					s-7.628-4.768-20.66-5.403c-13.032-0.636-21.508-2.851-21.508-2.851L241.424,209.554z"/>
				<path style="fill:#D4D4D4;stroke:#263238;stroke-linecap:round;stroke-linejoin:round;stroke-miterlimit:10;" d="
					M307.431,148.518c0,0-7.628-4.768-20.66-5.403c-13.032-0.636-21.508-2.851-21.508-2.851L241.48,209.39l9.161-0.79
					c0,0,1.589,5.086,23.203-12.714S296.624,154.557,307.431,148.518z"/>
				<path style="fill:none;stroke:#263238;stroke-linecap:round;stroke-linejoin:round;stroke-miterlimit:10;" d="M254.774,212.732
					c0,0,8.9,7.31,30.513-17.482c21.614-24.792,36.552-33.374,36.552-33.374"/>
				<path style="fill:none;stroke:#263238;stroke-linecap:round;stroke-linejoin:round;stroke-miterlimit:10;" d="M253.82,220.361
					c0,0,4.768,2.543,17.482-2.861"/>
			</g>
		</g>
		<g>
			<g>
				<path style="fill:#FFFFFF;stroke:#263238;stroke-linecap:round;stroke-linejoin:round;stroke-miterlimit:10;" d="
					M163.552,158.38c0,0-0.636,11.443,6.039,20.978s13.985,12.078,15.892,15.892c1.907,3.814-0.636,10.807,0.318,13.35
					c0.954,2.543,4.45,3.814,8.264,3.496c3.814-0.318,3.814-0.318,3.814-0.318s13.35,9.218,22.567,10.807
					c9.217,1.589,17.799-5.085,20.024-7.311c2.225-2.225,11.125-4.45,15.575-9.535c4.45-5.085,10.171-21.296,10.171-28.288
					s0-12.714,0-12.714L163.552,158.38z"/>
				<path style="fill:#263238;stroke:#263238;stroke-linecap:round;stroke-linejoin:round;stroke-miterlimit:10;" d="
					M163.552,158.38c0,0-0.768,0.684-1.624,3.278c-0.437,1.324-0.896,3.144-1.287,5.624c-1.16,7.344,0.386,11.595,0.386,11.595
					l4.252-10.049l2.706,6.184l1.933-7.73l1.933,4.252l5.025-6.957"/>
				<path style="fill:none;stroke:#263238;stroke-linecap:round;stroke-linejoin:round;stroke-miterlimit:10;" d="M241.42,214.438
					c0,0,5.025-5.025,5.411-15.847"/>
				<path style="fill:#263238;stroke:#263238;stroke-linecap:round;stroke-linejoin:round;stroke-miterlimit:10;" d="
					M219.175,172.684c0,0,1.271,2.225,1.907,4.768s0.636,4.45,0.636,4.45l2.861-4.768l1.907,2.861l0.954-2.225
					c0,0,3.178-1.271,2.861-4.45C229.982,170.141,219.175,172.684,219.175,172.684z"/>
				<path style="fill:none;stroke:#263238;stroke-linecap:round;stroke-linejoin:round;stroke-miterlimit:10;" d="M205.825,212.097
					c0,0,6.357-1.271,8.264-8.582"/>
				<path style="fill:#263238;" d="M195.289,189.452c1.383,1.533,1.791,3.419,0.912,4.212c-0.879,0.793-2.713,0.193-4.096-1.34
					c-1.383-1.533-1.791-3.419-0.912-4.212C192.072,187.319,193.906,187.919,195.289,189.452z"/>
				<path style="fill:none;stroke:#263238;stroke-linecap:round;stroke-linejoin:round;stroke-miterlimit:10;" d="M183.526,186.638
					c0,0,0-7.311,10.171-5.721"/>
			</g>
			<g>
				<path style="fill:#92E3A9;stroke:#263238;stroke-linecap:round;stroke-linejoin:round;stroke-miterlimit:10;" d="
					M165.459,120.557l-5.086,27.653c0,0-0.953-0.318-1.589,4.768c-0.636,5.086,2.225,7.628,4.768,9.217
					c2.543,1.589,17.799,10.489,50.855,12.396c33.056,1.907,51.173-4.45,54.67-5.721s6.357-4.45,5.403-11.125
					c-0.954-6.675-1.271-8.582-1.271-8.582s1.271-17.482-4.768-32.42c-6.039-14.939-16.528-24.156-16.528-24.156
					s1.271-4.768-0.318-6.993c-1.589-2.225-8.582-3.178-13.668-1.589c-5.085,1.589-13.349,3.496-19.706,4.45
					c-6.357,0.953-18.753-0.954-34.01,10.171C168.955,109.75,166.73,116.743,165.459,120.557z"/>
				<path style="fill:none;stroke:#263238;stroke-linecap:round;stroke-linejoin:round;stroke-miterlimit:10;" d="M216.668,165.183
					c13.271,0.582,34.515,0.634,46.369-3.942"/>
				<path style="fill:none;stroke:#263238;stroke-linecap:round;stroke-linejoin:round;stroke-miterlimit:10;" d="M204.872,164.42
					c0,0,3.228,0.307,8.267,0.588"/>
				<path style="fill:none;stroke:#263238;stroke-linecap:round;stroke-linejoin:round;stroke-miterlimit:10;" d="M263.991,157.745
					c0,0-18.435,4.768-31.467,3.178"/>
			</g>
		</g>
		<polygon style="fill:#263238;stroke:#263238;stroke-linecap:round;stroke-linejoin:round;stroke-miterlimit:10;" points="
			393.99,348.771 389.601,333.518 377.462,339.871 		"/>
		<path style="fill:none;stroke:#263238;stroke-linecap:round;stroke-linejoin:round;stroke-miterlimit:10;" d="M322.329,243.303
			c-1.904-1.262-3.45-2.39-4.622-3.236"/>
		<path style="fill:none;stroke:#263238;stroke-linecap:round;stroke-linejoin:round;stroke-miterlimit:10;" d="M412.426,255.642
			c0,0-8.9-1.907-11.125-2.543c-2.225-0.636-20.024,3.179-41.638,2.543c-14.667-0.431-26.114-5.547-33.745-10.081"/>
		<path style="fill:none;stroke:#263238;stroke-linecap:round;stroke-linejoin:round;stroke-miterlimit:10;" d="M357.16,192.191
			c3.933,0.04,6.635,0.199,6.635,0.199"/>
		<path style="fill:none;stroke:#263238;stroke-linecap:round;stroke-linejoin:round;stroke-miterlimit:10;" d="M322.157,197.476
			c0,0,11.125-3.814,20.978-4.768c2.545-0.246,5.154-0.387,7.624-0.459"/>
		<path style="fill:none;stroke:#263238;stroke-linecap:round;stroke-linejoin:round;stroke-miterlimit:10;" d="M292.702,251.197
			c2.26,1.147,4.663,2.22,7.206,3.173"/>
		<path style="fill:none;stroke:#263238;stroke-linecap:round;stroke-linejoin:round;stroke-miterlimit:10;" d="M268.123,231.485
			c0,0,7.566,10.088,21.33,17.959"/>
		<path style="fill:none;stroke:#263238;stroke-linecap:round;stroke-linejoin:round;stroke-miterlimit:10;" d="M303.722,237.524
			c0,0,6.039,6.039,17.482,8.264"/>
		<path style="fill:none;stroke:#263238;stroke-linecap:round;stroke-linejoin:round;stroke-miterlimit:10;" d="M392.07,278.427
			c1.873,0.825,3.686,1.704,5.417,2.642"/>
		<path style="fill:none;stroke:#263238;stroke-linecap:round;stroke-linejoin:round;stroke-miterlimit:10;" d="M337.414,266.448
			c0,0,27.956,1.673,50.306,10.197"/>
		<path style="fill:none;stroke:#263238;stroke-linecap:round;stroke-linejoin:round;stroke-miterlimit:10;" d="M394.944,274.395
			c0,0,6.039,2.543,9.535,7.31"/>
		<path style="fill:#FFFFFF;stroke:#263238;stroke-linecap:round;stroke-linejoin:round;stroke-miterlimit:10;" d="M389.601,333.518
			"/>
		<g>
			<path style="fill:#263238;stroke:#263238;stroke-linecap:round;stroke-linejoin:round;stroke-miterlimit:10;" d="
				M317.364,369.668c0,0,13.915,29.333,14.103,30.274c0.188,0.94-0.376,5.829-8.273,12.034c-7.897,6.205-12.974,7.145-13.162,10.718
				c-0.188,3.573-1.316,7.897,6.957,11.094c8.274,3.197,30.086,3.573,38.547-3.009c8.462-6.581,20.12-15.795,20.684-22.188
				c0.564-6.393-11.47-27.453-13.727-34.034c-2.256-6.581-6.393-18.803-6.393-18.803S339.552,371.549,317.364,369.668z"/>
			<path style="fill:#9E9E9E;stroke:#263238;stroke-linecap:round;stroke-linejoin:round;stroke-miterlimit:10;" d="
				M389.601,333.518c0,0-2.603-12.4-12.774-29.881c-10.171-17.482-26.205-28.849-46.088-36.235
				c-25.412-9.439-48.788,2.948-54.352,14.621c-4.168,8.745,1.271,33.692,8.582,41.956c7.31,8.264,18.753,36.552,21.613,41.638
				c2.861,5.085,7.628,7.31,20.024,6.993c12.396-0.318,29.56-11.125,30.513-15.574c0.953-4.45,0.318-9.218,0.318-9.218
				S380.384,347.185,389.601,333.518z"/>
			<path style="fill:none;stroke:#263238;stroke-linecap:round;stroke-linejoin:round;stroke-miterlimit:10;" d="M336.383,290.823
				c-1.561-2.497-3.191-4.758-4.882-6.687"/>
			<path style="fill:none;stroke:#263238;stroke-linecap:round;stroke-linejoin:round;stroke-miterlimit:10;" d="M357.438,347.817
				c0,0-7.197-31.906-18.621-52.82"/>
			<path style="fill:none;stroke:#263238;stroke-linecap:round;stroke-linejoin:round;stroke-miterlimit:10;" d="M336.496,284.735
				c0,0,4.595,4.995,6.993,11.788"/>
		</g>
		<path style="fill:#FFFFFF;stroke:#263238;stroke-linecap:round;stroke-linejoin:round;stroke-miterlimit:10;" d="M227.286,264.533
			c0,0,7.159,5.231,10.876,9.362c3.717,4.13,4.543,7.985,5.094,9.775c0.551,1.79,3.992,3.166,4.681,8.673
			c0.688,5.507-2.891,11.427-10.05,12.941c-7.159,1.514-20.238-20.788-22.44-25.194C213.243,275.685,222.054,264.12,227.286,264.533
			z"/>
		<g>
			<path style="fill:#9E9E9E;stroke:#263238;stroke-linecap:round;stroke-linejoin:round;stroke-miterlimit:10;" d="
				M198.645,260.635c0,0,42.435,53.498,44.254,53.953c1.819,0.455,7.881-4.85,8.032-6.971c0.152-2.122-47.588-51.831-47.588-51.831
				L198.645,260.635z"/>
			<g>
				<g>
					<path style="fill:#9E9E9E;stroke:#263238;stroke-linecap:round;stroke-linejoin:round;stroke-miterlimit:10;" d="
						M191.277,258.177c0.813-0.67,1.456-1.508,1.946-2.482l-0.238-0.277c-7.586,3.157-21.981-4.771-33.748-19.044
						c-10.982-13.321-16.101-27.834-13.041-35.276l-0.071-0.082c-0.455,0.236-0.885,0.512-1.281,0.839
						c-6.852,5.649-2.011,22.836,10.811,38.389S184.425,263.826,191.277,258.177z"/>
				</g>
				<path style="fill:#263238;stroke:#263238;stroke-linecap:round;stroke-linejoin:round;stroke-miterlimit:10;" d="
					M183.947,216.918c-15.477-18.773-34.951-28.279-43.497-21.234c-8.546,7.046-2.927,27.975,12.55,46.748
					s34.951,28.279,43.497,21.234C205.043,256.62,199.424,235.691,183.947,216.918z M191.277,258.177
					c-6.852,5.649-22.8-2.38-35.623-17.933s-17.663-32.74-10.811-38.389c6.852-5.649,22.8,2.38,35.623,17.933
					C193.288,235.341,198.128,252.528,191.277,258.177z"/>
				<path style="fill:#9E9E9E;stroke:#263238;stroke-linecap:round;stroke-linejoin:round;stroke-miterlimit:10;" d="
					M188.976,212.327c-15.477-18.773-34.951-28.279-43.497-21.234l-5.029,4.591c8.546-7.046,28.02,2.461,43.497,21.234
					s21.096,39.702,12.55,46.748l5.028-4.591C210.071,252.029,204.453,231.099,188.976,212.327z"/>
			</g>
		</g>
		<path style="fill:#FFFFFF;stroke:#263238;stroke-linecap:round;stroke-linejoin:round;stroke-miterlimit:10;" d="M228.373,263.499
			c-0.888-1.323-2.415-2.102-4.001-1.95c-0.838,0.08-1.726,0.294-2.439,0.77c-1.946,1.297-4.756,4.756-3.675,7.35
			c1.081,2.594,6.269,11.457,9.296,11.457c3.027,0,6.053-3.675,6.702-6.053C234.738,273.302,230.545,266.736,228.373,263.499z"/>
		<g>
			<path style="fill:#FFFFFF;stroke:#263238;stroke-linecap:round;stroke-linejoin:round;stroke-miterlimit:10;" d="
				M226.473,287.396c0,0,1.73-0.865-0.432-4.54c-2.162-3.675-5.404-3.891-7.566-1.297c-2.162,2.594-5.621,13.403-4.324,15.349
				c1.297,1.946,6.053,4.107,7.999,2.378C224.095,297.556,226.473,287.396,226.473,287.396z"/>
			<path style="fill:#FFFFFF;stroke:#263238;stroke-linecap:round;stroke-linejoin:round;stroke-miterlimit:10;" d="
				M226.814,285.118c0,0-4.454,13.885-4.454,15.588c0,1.703,3.013,4.192,5.37,4.323c2.358,0.131,5.895-8.645,6.419-12.182
				C234.673,289.31,233.625,280.664,226.814,285.118z"/>
			<path style="fill:#FFFFFF;stroke:#263238;stroke-linecap:round;stroke-linejoin:round;stroke-miterlimit:10;" d="
				M234.149,292.846c0,0,1.703-1.441,3.668,0.655c1.965,2.096,2.358,7.597,0.393,10.61c-1.965,3.013-4.847,4.847-6.68,4.192
				c-1.834-0.655-2.751-3.799-2.751-3.799S233.363,296.121,234.149,292.846z"/>
			<path style="fill:#FFFFFF;stroke:#263238;stroke-linecap:round;stroke-linejoin:round;stroke-miterlimit:10;" d="
				M213.812,269.276c0,0-6.829,7.171-7,10.926c-0.171,3.756,4.268,6.146,6.658,5.975c2.39-0.171,8.024-8.195,9.219-10.073
				c1.195-1.878-1.707-6.658-3.756-8.024C216.885,266.715,214.665,268.764,213.812,269.276z"/>
		</g>
		<path style="fill:none;stroke:#263238;stroke-linecap:round;stroke-linejoin:round;stroke-miterlimit:10;" d="M256.045,205.74
			c0,0,13.591-9.854,17.456-30.339"/>
		<path style="fill:none;stroke:#263238;stroke-linecap:round;stroke-linejoin:round;stroke-miterlimit:10;" d="M247.218,174.241
			c0,0-0.773,1.932-1.546,5.411"/>
	</g>
</g>
<g id="Butterfly">
	<g>
		<g>
			<path style="fill:#9E9E9E;stroke:#263238;stroke-linecap:round;stroke-linejoin:round;stroke-miterlimit:10;" d="
				M140.721,281.387c0,0-15.664-17.335-20.05-24.018c-4.386-6.683,7.519-6.474,15.037-1.88S145.106,278.254,140.721,281.387z"/>
			<path style="fill:#9E9E9E;stroke:#263238;stroke-linecap:round;stroke-linejoin:round;stroke-miterlimit:10;" d="
				M140.721,281.387c0,0-4.595-6.266-8.145-18.588c-3.55-12.322-2.089-21.303,0.835-22.138c2.924-0.835,17.335,10.651,19.214,16.29
				c1.88,5.639,0.835,15.246,0.835,15.246s0.835-8.772,7.728-12.322c6.892-3.55,5.221,6.057,3.759,8.772
				c-1.462,2.715-4.595,7.519-4.595,7.519S144.898,281.595,140.721,281.387z"/>
			<path style="fill:#263238;stroke:#263238;stroke-linecap:round;stroke-linejoin:round;stroke-miterlimit:10;" d="
				M140.721,281.387c0,0-4.177,0.418-3.55,2.506c0.626,2.089,23.182-4.386,24.644-5.639c1.462-1.253-1.462-2.089-1.462-2.089
				L140.721,281.387z"/>
			<path style="fill:none;stroke:#263238;stroke-linecap:round;stroke-linejoin:round;stroke-miterlimit:10;" d="M120.88,274.077
				c9.607,1.671,16.29,9.816,16.29,9.816s-8.981-6.057-16.29-2.715"/>
			
				<line style="fill:none;stroke:#263238;stroke-linecap:round;stroke-linejoin:round;stroke-miterlimit:10;" x1="143.227" y1="284.102" x2="149.075" y2="290.994"/>
			
				<line style="fill:none;stroke:#263238;stroke-linecap:round;stroke-linejoin:round;stroke-miterlimit:10;" x1="145.942" y1="283.475" x2="150.537" y2="287.234"/>
			
				<line style="fill:none;stroke:#263238;stroke-linecap:round;stroke-linejoin:round;stroke-miterlimit:10;" x1="151.163" y1="282.013" x2="155.758" y2="285.355"/>
			
				<line style="fill:none;stroke:#263238;stroke-linecap:round;stroke-linejoin:round;stroke-miterlimit:10;" x1="155.758" y1="280.969" x2="160.353" y2="283.266"/>
		</g>
		<path style="fill:#263238;stroke:#263238;stroke-linecap:round;stroke-linejoin:round;stroke-miterlimit:10;" d="M133.411,240.661
			c-2.211,0.632-3.582,5.926-2.585,13.797c-0.036-3.065,0.484-9.368,5.346-9.663c2.359-0.143,4.321,0.109,5.865,0.483
			C138.297,242.365,134.714,240.289,133.411,240.661z"/>
		<path style="fill:#263238;stroke:#263238;stroke-linecap:round;stroke-linejoin:round;stroke-miterlimit:10;" d="M123.803,252.197
			c-3.415,0.189-5.342,1.805-3.132,5.172c0.84,1.28,2.096,2.952,3.574,4.817l0.422-0.037
			C124.667,262.149,121.396,254.49,123.803,252.197z"/>
		<path style="fill:#263238;stroke:#263238;stroke-linecap:round;stroke-linejoin:round;stroke-miterlimit:10;" d="M161.188,259.875
			c-0.811,0.418-1.531,0.912-2.183,1.452l-0.02,0.042c0,0,4.688,0.637,6.927,4.413C166.717,262.082,166.428,257.175,161.188,259.875
			z"/>
		<path style="fill:none;stroke:#263238;stroke-width:0.5;stroke-linecap:round;stroke-linejoin:round;stroke-miterlimit:10;" d="
			M143.408,273.451c0.424,1.212,0.872,2.335,1.344,3.322"/>
		<path style="fill:none;stroke:#263238;stroke-width:0.5;stroke-linecap:round;stroke-linejoin:round;stroke-miterlimit:10;" d="
			M138.925,253.7c0.692,4.431,1.96,11.551,3.724,17.406"/>
		<path style="fill:none;stroke:#263238;stroke-width:0.5;stroke-linecap:round;stroke-linejoin:round;stroke-miterlimit:10;" d="
			M138.316,249.475c0,0,0.128,1.024,0.377,2.703"/>
		<path style="fill:none;stroke:#263238;stroke-width:0.5;stroke-linecap:round;stroke-linejoin:round;stroke-miterlimit:10;" d="
			M145.921,264.684c0,0,0,6.825,1.56,11.504"/>
		<path style="fill:none;stroke:#263238;stroke-width:0.5;stroke-linecap:round;stroke-linejoin:round;stroke-miterlimit:10;" d="
			M150.352,262.152c-0.039,4.396-0.065,10.595,0.054,13.451"/>
		<path style="fill:none;stroke:#263238;stroke-width:0.5;stroke-linecap:round;stroke-linejoin:round;stroke-miterlimit:10;" d="
			M150.406,257.275c0,0-0.014,0.993-0.031,2.534"/>
		<path style="fill:none;stroke:#263238;stroke-width:0.5;stroke-linecap:round;stroke-linejoin:round;stroke-miterlimit:10;" d="
			M155.671,274.824c0,0,2.535-4.095,4.68-9.165"/>
	</g>
</g>
</svg>
